<?xml version="1.0" encoding="utf-8"?>
<!-- Generator: Adobe Illustrator 24.2.1, SVG Export Plug-In . SVG Version: 6.00 Build 0)  -->
<svg version="1.1" id="Layer_1" xmlns="http://www.w3.org/2000/svg" xmlns:xlink="http://www.w3.org/1999/xlink" x="0px" y="0px"
	 viewBox="0 0 595.28 841.89" style="enable-background:new 0 0 595.28 841.89;" xml:space="preserve">
<style type="text/css">
	.st0{fill:#00953B;}
	.st1{fill:#FFFFFF;}
	.st2{fill:#9E28B5;}
	.st3{fill-rule:evenodd;clip-rule:evenodd;fill:#FFFFFF;}
	.st4{fill-rule:evenodd;clip-rule:evenodd;fill:#00953B;}
	.st5{fill-rule:evenodd;clip-rule:evenodd;fill:#9D5918;}
</style>
<path class="st0" d="M235.12,410.42c0,8.48,6.9,15.4,15.37,15.41l61.17,0.02v0.01l1.03,0.01v-1.04l-62.19-0.03
	c-7.92-0.01-14.36-6.46-14.36-14.38v-21.34h-1.03v1.03l0,0v20.31H235.12z"/>
<path class="st0" d="M311.4,427.23l-60.89-0.02c-9.24-0.02-16.76-7.55-16.76-16.79v-18.64l0,0v-2.7h-1.03v21.34
	c0,9.81,7.98,17.8,17.79,17.82l62.19,0.03v-1.03L311.4,427.23z"/>
<polygon class="st1" points="301.94,448.1 297.54,448.1 283.84,448.1 283.84,465.64 297.54,465.64 301.94,465.64 311.44,465.64 
	311.44,464.69 302.49,464.69 298.25,464.69 283.84,464.69 283.84,449.06 298.25,449.06 302.49,449.06 311.44,449.06 311.44,448.1 
	"/>
<polygon class="st2" points="311.44,449.06 302.49,449.06 298.24,449.06 283.83,449.06 283.83,464.69 298.24,464.69 302.49,464.69 
	311.44,464.69 "/>
<path class="st3" d="M283.83,448.1h-11.15h-3.59h-7.89c-0.91,0-1.68,0.34-2.3,0.82c-0.75,0.58-1.26,1.37-1.52,1.9
	c-0.47,0.93-0.83,1.92-1.08,2.94c-0.24,1-0.36,2.05-0.36,3.11c0,1.07,0.12,2.11,0.36,3.12c0.24,1.02,0.61,2,1.08,2.94
	c0.26,0.52,0.77,1.31,1.52,1.9c0.62,0.48,1.39,0.82,2.3,0.82h7.89h3.59h11.15"/>
<path class="st4" d="M283.83,449.06h-11.73h-3.46h-7.6c-1.67,0-2.61,1.68-2.86,2.19c-0.85,1.75-1.29,3.65-1.29,5.63
	c0,1.98,0.43,3.87,1.29,5.62c0.25,0.51,1.2,2.19,2.86,2.19h7.6h3.46h11.73"/>
<path class="st3" d="M311.44,448.1h11.16h3.58h7.9c0.91,0,1.67,0.34,2.29,0.82c0.76,0.58,1.26,1.37,1.52,1.9
	c0.47,0.93,0.83,1.92,1.08,2.93c0.23,1,0.36,2.05,0.36,3.12c0,1.07-0.13,2.11-0.36,3.11c-0.25,1.02-0.61,2.01-1.08,2.94
	c-0.26,0.53-0.77,1.31-1.52,1.9c-0.62,0.48-1.38,0.82-2.29,0.82h-7.9h-3.58h-11.16"/>
<path class="st5" d="M311.44,449.06h11.73h3.46h7.61c1.66,0,2.61,1.68,2.86,2.19c0.85,1.75,1.28,3.65,1.28,5.63
	c0,1.98-0.43,3.87-1.28,5.62c-0.25,0.51-1.2,2.19-2.86,2.19h-7.61h-3.46h-11.73"/>
</svg>
